HIERARCHY
ROOT pelvis
{
  OFFSET 0 100 0
  CHANNELS 6 Xposition Yposition Zposition Zrotation Xrotation Yrotation
  JOINT pelvis_right_femur
  {
    OFFSET -10.78128 -3.44521 -0.5502486
    CHANNELS 3 Zrotation Xrotation Yrotation
    JOINT right_femur_tibia
    {
      OFFSET -0.8047443 -44.0398 -0.1307829
      CHANNELS 3 Zrotation Xrotation Yrotation
      JOINT right_tibia_foot
      {
        OFFSET 3.006224 -47.83518 -5
        CHANNELS 3 Zrotation Xrotation Yrotation
        End Site
        {
          OFFSET 0 -5 15
        }
      }
    }
  }
  JOINT pelvis_left_femur
  {
    OFFSET 10.78128 -3.44521 -0.5502486
    CHANNELS 3 Zrotation Xrotation Yrotation
    JOINT left_femur_tibia
    {
      OFFSET 0.8047443 -44.0398 -0.1307829
      CHANNELS 3 Zrotation Xrotation Yrotation
      JOINT left_tibia_foot
      {
        OFFSET -4.370144 -48.10324 -4.275266
        CHANNELS 3 Zrotation Xrotation Yrotation
        End Site
        {
          OFFSET 0 -5 15
        }
      }
    }
  }
  JOINT pelvis_spine1
  {
    OFFSET 0 6.468898 -3.129235
    CHANNELS 3 Zrotation Xrotation Yrotation
    JOINT spine1
    {
      OFFSET 0 23.15396 4.99043
      CHANNELS 3 Zrotation Xrotation Yrotation
      JOINT spine2
      {
        OFFSET 0 20.79997 -5.064912
        CHANNELS 3 Zrotation Xrotation Yrotation
        JOINT neck
        {
          OFFSET 0 14.38658 9.616178
          CHANNELS 3 Zrotation Xrotation Yrotation
          End Site
          {
            OFFSET 0 20 0
          }
        }
      }
      JOINT right_manubrium
      {
        OFFSET -5.722621 16.35077 3.967754
        CHANNELS 3 Zrotation Xrotation Yrotation
        JOINT right_clavicle
        {
          OFFSET -13.16364 1.694482 -4.693211
          CHANNELS 3 Zrotation Xrotation Yrotation
          JOINT right_humerus
          {
            OFFSET -28.5034 -0.3100689 -2.792744
            CHANNELS 3 Zrotation Xrotation Yrotation
            JOINT right_radius
            {
              OFFSET -25.15693 0.02248979 -1.271978
              CHANNELS 3 Zrotation Xrotation Yrotation
              End Site
              {
                OFFSET -15 0 0
              }
            }
          }
        }
      }
      JOINT left_manubrium
      {
        OFFSET 5.722621 16.35077 3.967754
        CHANNELS 3 Zrotation Xrotation Yrotation
        JOINT left_clavicle
        {
          OFFSET 13.16364 1.694482 -4.693211
          CHANNELS 3 Zrotation Xrotation Yrotation
          JOINT left_humerus
          {
            OFFSET 29.39168 -1.063119 -2.237045
            CHANNELS 3 Zrotation Xrotation Yrotation
            JOINT left_radius
            {
              OFFSET 24.59957 -0.9528479 0.9047498
              CHANNELS 3 Zrotation Xrotation Yrotation
              End Site
              {
                OFFSET 15 -0 -0
              }
            }
          }
        }
      }
    }
  }
}
MOTION
Frames: 17
Frame Time: 0.0416666666667
62.48875 102.6803 254.4354 4.033785 -7.568438 6.361296 -2.266895 24.88115 8.222098 -0 27.37253 -0 6.684147 -11.97827 -0.1862982 -2.582367 -23.54383 -7.413867 -0 24.50854 -0 -8.265529 -5.910473 18.3192 -1.425931 -1.882797 9.794012 -2.600103 9.521345 -2.02535 2.607814 21.71322 3.863595 1.42293 -14.54708 6.168469 0.3914104 -21.78259 10.56989 82.17491 19.43261 -6.059353 -0 0 28.06133 -23.43214 10.09377 12.92724 4.516281 -12.58631 -2.82589 -94.69036 23.38115 26.92333 0 0 -8.229068 -4.69574 5.052658 18.90645
64.60763 103.194 261.587 4.474279 -7.836914 6.758695 -3.184684 23.17786 7.516804 -0 35.18646 -0 6.674868 -9.921819 -1.092772 -4.214226 -19.70643 -8.681588 -0 25.39555 -0 -7.932671 -6.527105 17.84262 -2.024663 -2.310452 9.488074 -2.558414 9.398385 -2.075837 2.705255 21.95577 3.859013 1.30036 -14.50162 6.399867 0.8086958 -20.72979 10.32968 83.05341 19.50698 -7.29363 -0 0 26.07199 -23.04949 10.12421 12.34423 4.348031 -12.44657 -2.929474 -93.89137 23.88685 25.89903 0 0 -7.993468 -4.681171 5.13934 18.98927
66.63539 104.2416 268.4194 4.940646 -8.410756 7.702728 -3.389145 19.48769 6.577787 -0 43.52549 -0 6.354004 -8.330417 -2.468677 -5.612509 -14.7754 -9.611641 -0 26.00496 -0 -7.44131 -7.791037 17.36898 -2.489635 -2.217172 8.763768 -2.463698 9.40684 -2.267875 2.686536 22.34646 3.918894 1.115542 -14.36607 6.627392 1.37224 -19.62262 10.23138 84.11068 19.7959 -8.850489 -0 0 23.52168 -22.4704 10.25325 11.60099 4.176717 -12.80076 -3.109742 -92.53044 24.46708 23.96128 0 0 -8.441296 -4.438377 5.341218 18.76451
68.48859 105.6858 274.7656 5.173799 -9.114814 8.850117 -3.082183 13.96321 5.50365 -0 50.27682 -0 5.856325 -7.635876 -4.003213 -6.445568 -9.156739 -10.13979 -0 25.70957 -0 -6.965977 -9.295891 16.90666 -2.68766 -1.682599 7.656572 -2.256349 9.456155 -2.653161 2.578017 22.84439 4.066827 0.8813522 -14.13521 6.900467 1.903134 -18.5867 10.2148 85.33283 20.22992 -10.5322 -0 0 20.90427 -21.74102 10.43636 10.83189 4.043101 -13.51353 -3.38592 -90.7471 25.05104 21.23253 0 0 -9.478837 -3.988748 5.645951 18.2746
70.16539 107.2884 280.6304 5.152517 -9.656446 10.05047 -2.507735 7.347676 4.473806 -0 53.68668 -0 5.251337 -7.547595 -5.338894 -6.728277 -3.397465 -10.38312 -0 24.35823 -0 -6.642144 -10.72678 16.39244 -2.673564 -1.044221 6.285823 -1.931741 9.426928 -3.3008 2.452782 23.36475 4.283456 0.6397487 -13.84839 7.248232 2.16305 -17.58597 10.10632 86.69507 20.69217 -12.29299 -0 0 18.58957 -20.93757 10.60932 10.14504 4.047538 -14.38054 -3.724415 -88.7557 25.56423 17.94183 0 0 -11.03648 -3.387406 6.041938 17.56319
71.72962 108.6979 286.0879 5.001672 -9.790686 11.36568 -1.939015 0.5001984 3.655402 -0 52.93426 -0 4.546554 -7.574329 -6.31514 -6.651086 2.041136 -10.51934 -0 22.1642 -0 -6.488267 -12.04178 15.74731 -2.593253 -0.5616778 4.837955 -1.523357 9.230878 -4.208553 2.39797 23.8278 4.500713 0.4429346 -13.54836 7.647471 2.00916 -16.57982 9.774439 88.07917 21.07758 -14.11341 -0 0 16.71871 -20.1361 10.71431 9.576841 4.259524 -15.29752 -4.0651 -86.70543 25.96863 14.29677 0 0 -13.06564 -2.689659 6.520688 16.64807
73.18803 109.5582 291.2315 4.840066 -9.466137 12.76527 -1.715608 -5.907798 3.112904 -0 48.16072 -0 3.702331 -7.482269 -7.04567 -6.411531 6.894648 -10.67756 -0 19.60563 -0 -6.426135 -13.40259 14.9516 -2.590263 -0.2745224 3.530385 -1.068614 8.851503 -5.266606 2.481932 24.18065 4.624365 0.3341983 -13.27236 8.026275 1.477461 -15.58176 9.220424 89.29274 21.33885 -15.942 -0 0 15.18862 -19.38732 10.71955 9.077968 4.672434 -16.28257 -4.352348 -84.64207 26.2589 10.45433 0 0 -15.49183 -1.929884 7.075228 15.53058
74.60404 109.7073 296.4158 4.786792 -8.850364 14.17982 -1.951532 -11.52579 2.78875 -0 40.37707 -0 2.690845 -7.392191 -7.737293 -6.196916 11.19281 -10.82907 -0 17.39081 -0 -6.383907 -14.90291 14.08905 -2.762138 -0.1737225 2.473515 -0.6110337 8.358355 -6.334806 2.692074 24.38089 4.610526 0.3108127 -13.09904 8.315085 0.7437183 -14.55716 8.553652 90.25124 21.49278 -17.7665 -0 0 13.73463 -18.69282 10.63895 8.547345 5.228788 -17.2942 -4.547911 -82.62879 26.4361 6.638254 0 0 -18.14086 -1.114557 7.695894 14.2515
76.00013 109.1636 301.7834 4.870469 -8.111002 15.41256 -2.503753 -16.24376 2.443293 -0 31.12558 -0 1.535591 -7.49674 -8.476363 -6.125017 14.97907 -10.86037 -0 15.98403 -0 -6.355361 -16.48885 13.25779 -3.065762 -0.1529878 1.771949 -0.1967135 7.844682 -7.182394 2.951828 24.43936 4.480821 0.3356755 -13.0637 8.476975 0.0341775 -13.50732 7.954272 90.99205 21.59536 -19.52314 -0 0 12.11727 -17.99366 10.51349 7.886541 5.839779 -18.3181 -4.588209 -80.77844 26.49582 3.064945 0 0 -20.81862 -0.2406541 8.356973 12.88416
77.33418 108.1028 307.2867 4.994198 -7.368579 16.24942 -3.021146 -19.98863 1.938599 -0 22.10164 -0 0.2896147 -7.923669 -9.180345 -6.171452 18.23106 -10.70888 -0 15.61107 -0 -6.388834 -17.95767 12.54236 -3.372893 -0.08689109 1.435063 0.1571292 7.368103 -7.657508 3.189564 24.40972 4.279831 0.3723679 -13.15937 8.51067 -0.4619399 -12.49932 7.571557 91.58072 21.70456 -21.09324 -0 0 10.25654 -17.22959 10.38757 7.062196 6.397633 -19.34412 -4.452681 -79.19975 26.45512 -0.06443668 0 0 -23.28919 0.6688727 9.019433 11.52475
78.56465 106.8145 312.9573 4.997519 -6.730038 16.69754 -3.066423 -22.62557 1.427235 -0 15.04088 -0 -0.9631474 -8.594569 -9.713954 -6.131359 20.90649 -10.4435 -0 16.40603 -0 -6.565187 -18.97862 12.00637 -3.533931 0.05277601 1.335858 0.4641671 6.938181 -7.769469 3.377947 24.35835 4.051957 0.4041283 -13.36543 8.453722 -0.6441858 -11.60719 7.460224 92.08195 21.85277 -22.35623 -0 0 8.251809 -16.37101 10.29595 6.120661 6.782584 -20.29758 -4.196466 -77.99853 26.36576 -2.542412 0 0 -25.26353 1.552606 9.641264 10.28613
79.69271 105.5697 318.9775 4.796733 -6.335712 17.12602 -2.446932 -23.95092 1.34754 -0 11.50695 -0 -2.09094 -9.037998 -10.12141 -5.684632 23.02792 -10.25938 -0 18.60238 -0 -6.960484 -19.14985 11.69746 -3.440343 0.06543346 1.263381 0.744199 6.559086 -7.667973 3.541085 24.32882 3.831557 0.4388615 -13.67049 8.373813 -0.5590637 -10.80259 7.536699 92.57699 22.01964 -23.27585 -0 0 6.328216 -15.43486 10.24903 5.168138 6.901543 -20.95047 -3.915659 -77.33859 26.31906 -4.131825 0 0 -26.4525 2.324842 10.19451 9.281531
80.7686 104.6255 325.4928 4.371309 -6.249382 17.64592 -1.194218 -23.72812 1.967459 -0 11.60617 -0 -3.027849 -8.981275 -10.35867 -4.800534 24.39225 -10.22669 -0 22.62324 -0 -7.56314 -18.09262 11.76423 -3.057297 -0.1729881 1.066438 0.9936538 6.33319 -7.542891 3.676826 24.41361 3.590524 0.4823648 -13.97275 8.230319 -0.3814826 -10.16176 7.643873 93.00214 22.18957 -23.74397 -0 0 4.802038 -14.527 10.22518 4.358607 6.816617 -21.0656 -3.618718 -77.36912 26.40634 -4.602597 0 0 -26.65568 2.904089 10.67306 8.605769
81.85414 104.1949 332.4696 3.81412 -6.57563 17.96787 0.3925648 -21.92176 3.116116 -0 14.05096 -0 -3.832416 -8.665237 -10.36542 -3.723728 24.54741 -10.26002 -0 28.71367 -0 -8.216463 -15.87833 12.41016 -2.448408 -0.5420524 0.8418097 1.194968 6.344308 -7.432805 3.769365 24.66161 3.327142 0.5297557 -14.20222 8.006943 -0.2258455 -9.813326 7.73241 93.20076 22.37223 -23.63751 -0 0 3.913462 -13.77433 10.19599 3.814137 6.57732 -20.60088 -3.317516 -78.13525 26.6627 -3.874029 0 0 -25.79277 3.225382 11.08121 8.312284
82.96281 104.367 339.6414 3.317838 -7.412247 17.69472 1.911605 -18.69448 4.326264 -0 16.93582 -0 -4.613458 -8.642328 -10.14384 -2.855933 22.92517 -10.17089 -0 36.56848 -0 -8.690303 -13.086 13.73541 -1.785613 -0.7196048 0.8478734 1.33261 6.614285 -7.240321 3.813218 25.05818 3.076762 0.5743258 -14.34816 7.747774 -0.09094312 -9.88926 7.875576 92.9975 22.59058 -22.85829 -0 0 3.75521 -13.28635 10.13513 3.597343 6.171983 -19.74582 -3.07782 -79.54877 27.04507 -2.088067 0 0 -23.9215 3.250734 11.42582 8.400693
84.0344 105.0102 346.6012 3.095692 -8.652342 16.87241 3.122057 -14.24596 5.18436 -0 18.87569 -0 -5.362146 -9.234382 -9.779157 -2.547633 19.19114 -9.814624 -0 44.9862 -0 -8.813117 -10.51096 15.54139 -1.337656 -0.4226849 1.235201 1.401657 7.09957 -6.885847 3.838351 25.55536 2.852965 0.6251452 -14.41259 7.499604 0.09186634 -10.4629 8.163052 92.29907 22.84846 -21.38088 -0 0 4.243752 -13.13375 10.02011 3.710783 5.60153 -18.83198 -2.993588 -81.38731 27.45112 0.372523 0 0 -21.2815 2.991306 11.71551 8.799981
85.05357 105.9935 353.1725 3.186735 -9.842234 15.84148 3.782167 -8.956233 5.590156 -0 19.25063 -0 -5.951181 -10.22853 -9.338908 -2.786133 13.92235 -9.312365 -0 52.55942 -0 -8.633068 -8.424734 17.44361 -1.249272 0.1135236 1.992782 1.375287 7.601217 -6.342504 3.905483 26.03553 2.64093 0.7062389 -14.44702 7.294006 0.3089195 -11.31865 8.578333 91.25777 23.08045 -19.42772 -0 0 5.161551 -13.32139 9.841477 4.107767 4.958263 -18.04387 -3.039249 -83.51113 27.78267 3.207618 0 0 -18.23777 2.51402 11.9584 9.385029
